<svg width="693" height="151" viewBox="0 0 693 151" fill="none" xmlns="http://www.w3.org/2000/svg">
<path d="M77.2353 36.8287C74.4449 34.0382 74.445 29.5138 77.2356 26.7234V26.7234C87.1581 16.8016 103.312 16.5561 113.292 26.4207C117.073 30.1669 119.586 35.0035 120.478 40.251C121.369 45.4986 120.594 50.8935 118.262 55.6781C117.143 57.9636 116.766 60.5415 117.183 63.0516V63.0516C117.869 67.1751 123.069 67.3079 125.331 63.7925C126.489 61.9938 127.484 60.0903 128.304 58.1037C130.09 53.776 131.006 49.1388 131 44.457C130.993 39.7754 130.064 35.1408 128.266 30.8182C126.468 26.4955 123.835 22.5696 120.519 19.2645C106.564 5.38949 83.9128 5.6656 69.9971 19.5796L25.794 63.7782C23.6072 65.9648 20.062 65.9648 17.8752 63.7782V63.7782C7.78439 53.6881 7.72007 37.1949 17.9889 27.2841C21.79 23.6269 26.6326 21.2395 31.8484 20.4514C37.0642 19.6634 42.396 20.5135 47.1081 22.8845C49.2588 23.9866 51.7028 24.3808 54.0909 24.0109C56.4791 23.6411 58.6893 22.526 60.4059 20.8251L60.5287 20.7029C60.5669 20.665 60.5972 20.6198 60.6179 20.5701C60.6386 20.5204 60.6492 20.467 60.6492 20.4132C60.6492 20.3593 60.6386 20.306 60.6179 20.2563C60.5972 20.2066 60.5669 20.1614 60.5287 20.1234C53.8998 13.6615 45.0168 10.0319 35.7591 10.0025C26.5015 9.97321 17.5955 13.5465 10.9258 19.9662C-3.44149 33.8348 -3.39015 56.8969 10.7309 71.0168L53.7645 114.047C56.5891 116.872 56.5891 121.451 53.7645 124.276V124.276C43.8419 134.198 27.6873 134.443 17.7082 124.578C13.9268 120.832 11.4139 115.996 10.5224 110.748C9.63096 105.501 10.4057 100.106 12.7379 95.3211C13.8567 93.0356 14.2338 90.4577 13.8165 87.948V87.948C13.1309 83.8244 7.93086 83.6915 5.66874 87.2068C4.51131 89.0054 3.5154 90.9088 2.69548 92.8952C0.909317 97.2234 -0.00660119 101.86 3.58131e-05 106.542C0.00667284 111.224 0.935734 115.859 2.73417 120.181C4.53259 124.504 7.16514 128.43 10.4814 131.735C24.4354 145.61 47.0873 145.335 61.003 131.42L105.254 87.1723C107.449 84.9774 111.007 84.9774 113.202 87.1723V87.1723C123.125 97.0941 123.37 113.247 113.505 123.225C109.759 127.007 104.921 129.519 99.6737 130.411C94.4259 131.303 89.0306 130.528 84.2454 128.195C81.9591 127.076 79.3797 126.698 76.8685 127.117V127.117C72.7429 127.803 72.611 133.006 76.1283 135.269C77.9263 136.426 79.8291 137.421 81.8148 138.24C86.1433 140.026 90.7803 140.942 95.4629 140.936C100.145 140.929 104.78 140 109.102 138.201C113.426 136.403 117.352 133.771 120.657 130.455C134.534 116.502 134.258 93.8516 120.343 79.9375L77.2353 36.8287ZM84.0494 93.9901C74.1188 103.92 58.019 103.92 48.0885 93.99L47.0096 92.9111C37.078 82.9802 37.0781 66.8782 47.0098 56.9474V56.9474C56.9404 47.0177 73.0402 47.0177 82.9707 56.9475L84.0496 58.0263C93.9812 67.9573 93.9811 84.0593 84.0494 93.9901V93.9901Z" fill="black"/>
<path d="M163.808 52.744C163.808 46.2587 166.709 40.712 172.512 36.104C178.315 31.496 185.44 29.192 193.888 29.192C202.421 29.192 208.949 30.2587 213.472 32.392C217.995 34.44 220.256 37 220.256 40.072C220.256 43.144 218.379 45.064 214.624 45.832C211.381 40.968 204.853 38.536 195.04 38.536C189.237 38.536 184.501 39.9013 180.832 42.632C177.163 45.2773 175.328 48.52 175.328 52.36C175.328 56.2 176.821 59.144 179.808 61.192C182.795 63.24 187.147 65.032 192.864 66.568C198.667 68.0187 203.104 69.3413 206.176 70.536C209.333 71.7307 212.491 73.3093 215.648 75.272C221.792 79.0267 224.864 84.7013 224.864 92.296C224.864 99.8053 221.792 105.992 215.648 110.856C209.504 115.635 201.824 118.024 192.608 118.024C183.392 118.024 176.181 116.829 170.976 114.44C165.856 111.965 163.296 109.064 163.296 105.736C163.296 102.323 165.472 100.061 169.824 98.952C172.981 105.352 180.107 108.552 191.2 108.552C198.283 108.552 203.787 107.144 207.712 104.328C211.723 101.427 213.728 97.7573 213.728 93.32C213.728 88.7973 211.723 85.3413 207.712 82.952C203.787 80.5627 197.6 78.344 189.152 76.296C180.789 74.1627 174.475 71.304 170.208 67.72C165.941 64.136 163.808 59.144 163.808 52.744ZM263.744 52.872C281.835 52.872 290.88 61.2773 290.88 78.088V103.432C290.88 108.125 292.672 111.112 296.256 112.392C294.976 115.635 292.587 117.256 289.088 117.256C286.528 117.256 284.48 116.36 282.944 114.568C281.493 112.691 280.768 110.259 280.768 107.272C275.392 114.44 268.437 118.024 259.904 118.024C252.992 118.024 247.531 116.275 243.52 112.776C239.595 109.192 237.632 104.413 237.632 98.44C237.632 92.3813 239.936 87.4747 244.544 83.72C249.237 79.9653 255.552 78.088 263.488 78.088C268.267 78.088 272.277 78.6 275.52 79.624C278.165 80.5627 279.744 81.16 280.256 81.416V75.784C280.256 70.5787 278.933 66.9093 276.288 64.776C273.643 62.5573 269.632 61.448 264.256 61.448C256.661 61.448 250.773 64.3493 246.592 70.152C243.008 69.64 241.216 67.976 241.216 65.16C241.216 61.9173 243.435 59.0587 247.872 56.584C252.309 54.1093 257.6 52.872 263.744 52.872ZM280.256 89.608C274.88 87.2187 269.589 86.024 264.384 86.024C259.179 86.024 255.168 87.1333 252.352 89.352C249.536 91.5707 248.128 94.472 248.128 98.056C248.128 101.555 249.323 104.371 251.712 106.504C254.187 108.552 257.771 109.576 262.464 109.576C267.243 109.576 271.381 107.869 274.88 104.456C278.464 101.043 280.256 96.904 280.256 92.04V89.608ZM340.311 25.096C344.236 25.096 347.479 25.992 350.039 27.784C352.684 29.576 354.007 31.8373 354.007 34.568C354.007 37.2133 352.642 39.0053 349.911 39.944C347.778 36.36 344.364 34.568 339.671 34.568C330.796 34.568 326.359 40.712 326.359 53V54.28H342.103C345.346 54.28 346.967 55.7307 346.967 58.632C346.967 61.448 345.346 62.856 342.103 62.856H326.359V112.776C326.359 114.483 325.975 115.72 325.207 116.488C324.439 117.171 323.202 117.512 321.495 117.512H320.855C319.063 117.512 317.783 117.171 317.015 116.488C316.247 115.72 315.863 114.483 315.863 112.776V62.856H309.207C307.415 62.856 306.135 62.6 305.367 62.088C304.684 61.4907 304.343 60.3387 304.343 58.632C304.343 56.9253 304.727 55.7733 305.495 55.176C306.263 54.5787 307.5 54.28 309.207 54.28H315.863V50.184C315.863 42.248 318.039 36.104 322.391 31.752C326.743 27.3147 332.716 25.096 340.311 25.096ZM353.626 85.64C353.626 74.9733 356.613 66.824 362.586 61.192C368.559 55.56 375.429 52.744 383.194 52.744C390.959 52.744 397.103 54.7493 401.626 58.76C406.149 62.6853 408.41 67.592 408.41 73.48C408.41 79.368 406.063 83.976 401.37 87.304C396.762 90.5467 390.789 92.168 383.45 92.168C376.111 92.168 369.498 91.016 363.61 88.712C363.61 94.9413 365.743 99.976 370.01 103.816C374.277 107.571 379.482 109.448 385.626 109.448C395.183 109.448 401.157 106.504 403.546 100.616C404.997 100.616 406.234 101.043 407.258 101.896C408.282 102.664 408.794 103.816 408.794 105.352C408.794 108.339 406.575 111.197 402.138 113.928C397.786 116.659 392.239 118.024 385.498 118.024C376.453 118.024 368.858 115.293 362.714 109.832C356.655 104.371 353.626 96.3067 353.626 85.64ZM398.682 73.096C398.682 69.768 397.231 66.952 394.33 64.648C391.514 62.344 387.589 61.192 382.554 61.192C377.605 61.192 373.253 63.1973 369.498 67.208C365.743 71.2187 363.823 75.7413 363.738 80.776C369.882 82.824 375.983 83.848 382.042 83.848C393.135 83.848 398.682 80.264 398.682 73.096ZM463.533 29.064C473.517 29.064 481.24 30.7707 486.701 34.184C492.248 37.5973 495.021 41.6507 495.021 46.344C495.021 48.0507 494.338 49.5013 492.973 50.696C491.608 51.8907 489.773 52.488 487.469 52.488C484.824 43.6987 476.845 39.304 463.533 39.304C455.426 39.304 448.472 42.248 442.669 48.136C436.866 54.024 433.965 62.472 433.965 73.48C433.965 84.4027 436.738 92.936 442.285 99.08C447.917 105.139 455 108.168 463.533 108.168C472.066 108.168 478.68 105.821 483.373 101.128C488.152 96.3493 490.541 90.376 490.541 83.208C490.541 82.0133 489.944 81.416 488.749 81.416H469.165C465.837 81.416 464.173 79.752 464.173 76.424C464.173 73.0107 465.837 71.304 469.165 71.304H494.125C496.258 71.304 497.965 71.9013 499.245 73.096C500.61 74.2907 501.293 75.912 501.293 77.96V83.336C501.293 91.9547 498.093 99.7627 491.693 106.76C488.706 110.173 484.738 112.904 479.789 114.952C474.925 117 469.506 118.024 463.533 118.024C451.501 118.024 441.602 114.099 433.837 106.248C426.072 98.3973 422.189 87.4747 422.189 73.48C422.189 59.4 426.2 48.4773 434.221 40.712C442.242 32.9467 452.013 29.064 463.533 29.064ZM538.494 52.872C556.585 52.872 565.63 61.2773 565.63 78.088V103.432C565.63 108.125 567.422 111.112 571.006 112.392C569.726 115.635 567.337 117.256 563.838 117.256C561.278 117.256 559.23 116.36 557.694 114.568C556.243 112.691 555.518 110.259 555.518 107.272C550.142 114.44 543.187 118.024 534.654 118.024C527.742 118.024 522.281 116.275 518.27 112.776C514.345 109.192 512.382 104.413 512.382 98.44C512.382 92.3813 514.686 87.4747 519.294 83.72C523.987 79.9653 530.302 78.088 538.238 78.088C543.017 78.088 547.027 78.6 550.27 79.624C552.915 80.5627 554.494 81.16 555.006 81.416V75.784C555.006 70.5787 553.683 66.9093 551.038 64.776C548.393 62.5573 544.382 61.448 539.006 61.448C531.411 61.448 525.523 64.3493 521.342 70.152C517.758 69.64 515.966 67.976 515.966 65.16C515.966 61.9173 518.185 59.0587 522.622 56.584C527.059 54.1093 532.35 52.872 538.494 52.872ZM555.006 89.608C549.63 87.2187 544.339 86.024 539.134 86.024C533.929 86.024 529.918 87.1333 527.102 89.352C524.286 91.5707 522.878 94.472 522.878 98.056C522.878 101.555 524.073 104.371 526.462 106.504C528.937 108.552 532.521 109.576 537.214 109.576C541.993 109.576 546.131 107.869 549.63 104.456C553.214 101.043 555.006 96.904 555.006 92.04V89.608ZM594.837 36.872H595.733C598.976 36.872 600.597 38.4507 600.597 41.608V54.28H618.261C621.589 54.28 623.253 55.7307 623.253 58.632C623.253 61.5333 621.589 62.984 618.261 62.984H600.597V95.24C600.597 100.616 601.621 104.413 603.669 106.632C605.802 108.765 608.874 109.832 612.885 109.832C616.981 109.832 620.01 108.851 621.973 106.888C624.106 107.571 625.173 108.936 625.173 110.984C625.173 113.032 623.765 114.739 620.949 116.104C618.133 117.384 614.762 118.024 610.837 118.024C596.928 118.024 589.973 110.429 589.973 95.24V62.984H583.701C581.824 62.984 580.458 62.6853 579.605 62.088C578.752 61.4907 578.325 60.3387 578.325 58.632C578.325 55.7307 580.117 54.28 583.701 54.28H589.973V41.608C589.973 38.4507 591.594 36.872 594.837 36.872ZM631.876 85.64C631.876 74.9733 634.863 66.824 640.836 61.192C646.809 55.56 653.679 52.744 661.444 52.744C669.209 52.744 675.353 54.7493 679.876 58.76C684.399 62.6853 686.66 67.592 686.66 73.48C686.66 79.368 684.313 83.976 679.62 87.304C675.012 90.5467 669.039 92.168 661.7 92.168C654.361 92.168 647.748 91.016 641.86 88.712C641.86 94.9413 643.993 99.976 648.26 103.816C652.527 107.571 657.732 109.448 663.876 109.448C673.433 109.448 679.407 106.504 681.796 100.616C683.247 100.616 684.484 101.043 685.508 101.896C686.532 102.664 687.044 103.816 687.044 105.352C687.044 108.339 684.825 111.197 680.388 113.928C676.036 116.659 670.489 118.024 663.748 118.024C654.703 118.024 647.108 115.293 640.964 109.832C634.905 104.371 631.876 96.3067 631.876 85.64ZM676.932 73.096C676.932 69.768 675.481 66.952 672.58 64.648C669.764 62.344 665.839 61.192 660.804 61.192C655.855 61.192 651.503 63.1973 647.748 67.208C643.993 71.2187 642.073 75.7413 641.988 80.776C648.132 82.824 654.233 83.848 660.292 83.848C671.385 83.848 676.932 80.264 676.932 73.096Z" fill="black"/>
</svg>
